# xmcd CD database file
#
# Track frame offsets:
#	150
#	17500
#	30098
#	46375
#	60855
#	73748
#	88685
#	103903
#	120800
#	136715
#	151615
#	165385
#
# Disc length: 2400 seconds
#
# Revision: 0
# Processed by: cddbd v1.4PL0 Copyright (c) Steve Scherf et al.
# Submitted via: CDex 1.51
#
DISCID=7c095e0c
DTITLE=Perry Como - Take Me In Your Arms
DYEAR=1900
DGENRE=Blues
TTITLE0=Take me in your arms
TTITLE1=You'd be so nice to come home
TTITLE2=My melancholy baby
TTITLE3=More than ever
TTITLE4=It's always you
TTITLE5=Close to you
TTITLE6=As Time goes by
TTITLE7=Temptation
TTITLE8=Secretly
TTITLE9=I wonder what's become of Sally
TTITLE10=Paper doll
TTITLE11=I'll be home for christmas
EXTD=
EXTT0=
EXTT1=
EXTT2=
EXTT3=
EXTT4=
EXTT5=
EXTT6=
EXTT7=
EXTT8=
EXTT9=
EXTT10=
EXTT11=
PLAYORDER=
